<mxfile host="app.diagrams.net" agent="Mozilla/5.0 (Windows NT 10.0; Win64; x64) AppleWebKit/537.36 (KHTML, like Gecko) Chrome/131.0.0.0 Safari/537.36" version="24.9.1">
  <diagram name="Trang-1" id="0knigIFlzXDlnCoVaFzN">
    <mxGraphModel dx="1050" dy="522" grid="1" gridSize="10" guides="1" tooltips="1" connect="1" arrows="1" fold="1" page="1" pageScale="1" pageWidth="827" pageHeight="1169" math="0" shadow="0">
      <root>
        <mxCell id="0" />
        <mxCell id="1" parent="0" />
        <mxCell id="qL6p13uKGtfWRZLd5ckP-148" value="" style="shape=internalStorage;whiteSpace=wrap;html=1;backgroundOutline=1;dx=280;dy=40;" parent="1" vertex="1">
          <mxGeometry x="80" y="40" width="560" height="810" as="geometry" />
        </mxCell>
        <mxCell id="qL6p13uKGtfWRZLd5ckP-149" value="Quản lý" style="text;html=1;align=center;verticalAlign=middle;whiteSpace=wrap;rounded=0;" parent="1" vertex="1">
          <mxGeometry x="180" y="50" width="60" height="30" as="geometry" />
        </mxCell>
        <mxCell id="qL6p13uKGtfWRZLd5ckP-150" value="Hệ thống" style="text;html=1;align=center;verticalAlign=middle;whiteSpace=wrap;rounded=0;" parent="1" vertex="1">
          <mxGeometry x="470" y="50" width="60" height="30" as="geometry" />
        </mxCell>
        <mxCell id="qL6p13uKGtfWRZLd5ckP-151" value="" style="ellipse;html=1;shape=startState;fillColor=#000000;strokeColor=#ff0000;" parent="1" vertex="1">
          <mxGeometry x="185" y="90" width="30" height="30" as="geometry" />
        </mxCell>
        <mxCell id="qL6p13uKGtfWRZLd5ckP-152" value="" style="edgeStyle=orthogonalEdgeStyle;html=1;verticalAlign=bottom;endArrow=open;endSize=8;strokeColor=#ff0000;rounded=0;entryX=0.5;entryY=0;entryDx=0;entryDy=0;" parent="1" source="qL6p13uKGtfWRZLd5ckP-151" target="qL6p13uKGtfWRZLd5ckP-153" edge="1">
          <mxGeometry relative="1" as="geometry">
            <mxPoint x="240" y="160" as="targetPoint" />
            <Array as="points">
              <mxPoint x="200" y="140" />
              <mxPoint x="200" y="140" />
            </Array>
          </mxGeometry>
        </mxCell>
        <mxCell id="qL6p13uKGtfWRZLd5ckP-153" value="Ấn chọn sửa phòng ban" style="rounded=1;whiteSpace=wrap;html=1;" parent="1" vertex="1">
          <mxGeometry x="140" y="160" width="120" height="60" as="geometry" />
        </mxCell>
        <mxCell id="qL6p13uKGtfWRZLd5ckP-154" value="Hiển thị form tìm kiếm theo mã phòng ban" style="rounded=1;whiteSpace=wrap;html=1;" parent="1" vertex="1">
          <mxGeometry x="450" y="160" width="120" height="60" as="geometry" />
        </mxCell>
        <mxCell id="qL6p13uKGtfWRZLd5ckP-155" value="" style="endArrow=classic;html=1;rounded=0;exitX=1;exitY=0.5;exitDx=0;exitDy=0;" parent="1" source="qL6p13uKGtfWRZLd5ckP-153" target="qL6p13uKGtfWRZLd5ckP-154" edge="1">
          <mxGeometry width="50" height="50" relative="1" as="geometry">
            <mxPoint x="390" y="320" as="sourcePoint" />
            <mxPoint x="440" y="270" as="targetPoint" />
          </mxGeometry>
        </mxCell>
        <mxCell id="qL6p13uKGtfWRZLd5ckP-156" value="Nhập mã phòng ban" style="rounded=1;whiteSpace=wrap;html=1;" parent="1" vertex="1">
          <mxGeometry x="140" y="240" width="120" height="60" as="geometry" />
        </mxCell>
        <mxCell id="qL6p13uKGtfWRZLd5ckP-157" value="" style="endArrow=classic;html=1;rounded=0;exitX=0.5;exitY=1;exitDx=0;exitDy=0;entryX=1;entryY=0.5;entryDx=0;entryDy=0;" parent="1" source="qL6p13uKGtfWRZLd5ckP-154" target="qL6p13uKGtfWRZLd5ckP-156" edge="1">
          <mxGeometry width="50" height="50" relative="1" as="geometry">
            <mxPoint x="390" y="320" as="sourcePoint" />
            <mxPoint x="440" y="270" as="targetPoint" />
            <Array as="points">
              <mxPoint x="510" y="270" />
            </Array>
          </mxGeometry>
        </mxCell>
        <mxCell id="qL6p13uKGtfWRZLd5ckP-158" value="" style="endArrow=classic;html=1;rounded=0;exitX=0.5;exitY=1;exitDx=0;exitDy=0;entryX=0;entryY=0.5;entryDx=0;entryDy=0;" parent="1" source="qL6p13uKGtfWRZLd5ckP-156" target="qL6p13uKGtfWRZLd5ckP-159" edge="1">
          <mxGeometry width="50" height="50" relative="1" as="geometry">
            <mxPoint x="350" y="402.5" as="sourcePoint" />
            <mxPoint x="450" y="402.5" as="targetPoint" />
            <Array as="points">
              <mxPoint x="200" y="320" />
            </Array>
          </mxGeometry>
        </mxCell>
        <mxCell id="qL6p13uKGtfWRZLd5ckP-159" value="Kiểm tra mã phòng ban tồn tại" style="rounded=1;whiteSpace=wrap;html=1;" parent="1" vertex="1">
          <mxGeometry x="450" y="290" width="120" height="60" as="geometry" />
        </mxCell>
        <mxCell id="qL6p13uKGtfWRZLd5ckP-160" value="" style="endArrow=classic;html=1;rounded=0;exitX=0.5;exitY=1;exitDx=0;exitDy=0;" parent="1" source="qL6p13uKGtfWRZLd5ckP-159" target="qL6p13uKGtfWRZLd5ckP-161" edge="1">
          <mxGeometry width="50" height="50" relative="1" as="geometry">
            <mxPoint x="390" y="550" as="sourcePoint" />
            <mxPoint x="440" y="500" as="targetPoint" />
          </mxGeometry>
        </mxCell>
        <mxCell id="qL6p13uKGtfWRZLd5ckP-161" value="" style="rhombus;whiteSpace=wrap;html=1;" parent="1" vertex="1">
          <mxGeometry x="480" y="380" width="60" height="40" as="geometry" />
        </mxCell>
        <mxCell id="qL6p13uKGtfWRZLd5ckP-162" value="" style="endArrow=classic;html=1;rounded=0;exitX=0;exitY=0.5;exitDx=0;exitDy=0;" parent="1" source="qL6p13uKGtfWRZLd5ckP-161" target="qL6p13uKGtfWRZLd5ckP-164" edge="1">
          <mxGeometry width="50" height="50" relative="1" as="geometry">
            <mxPoint x="390" y="560" as="sourcePoint" />
            <mxPoint x="440" y="510" as="targetPoint" />
            <Array as="points">
              <mxPoint x="430" y="400" />
            </Array>
          </mxGeometry>
        </mxCell>
        <mxCell id="qL6p13uKGtfWRZLd5ckP-163" style="edgeStyle=orthogonalEdgeStyle;rounded=0;orthogonalLoop=1;jettySize=auto;html=1;entryX=0;entryY=0.5;entryDx=0;entryDy=0;" parent="1" source="qL6p13uKGtfWRZLd5ckP-164" target="qL6p13uKGtfWRZLd5ckP-156" edge="1">
          <mxGeometry relative="1" as="geometry" />
        </mxCell>
        <mxCell id="qL6p13uKGtfWRZLd5ckP-164" value="Thông báo mã phòng ban không tồn tại" style="rounded=1;whiteSpace=wrap;html=1;" parent="1" vertex="1">
          <mxGeometry x="380" y="430" width="100" height="60" as="geometry" />
        </mxCell>
        <mxCell id="qL6p13uKGtfWRZLd5ckP-165" value="" style="endArrow=classic;html=1;rounded=0;exitX=1;exitY=0.5;exitDx=0;exitDy=0;" parent="1" source="qL6p13uKGtfWRZLd5ckP-161" target="qL6p13uKGtfWRZLd5ckP-166" edge="1">
          <mxGeometry width="50" height="50" relative="1" as="geometry">
            <mxPoint x="390" y="460" as="sourcePoint" />
            <mxPoint x="440" y="410" as="targetPoint" />
            <Array as="points">
              <mxPoint x="585" y="400" />
            </Array>
          </mxGeometry>
        </mxCell>
        <mxCell id="qL6p13uKGtfWRZLd5ckP-166" value="Hiển thị form sửa phòng ban" style="rounded=1;whiteSpace=wrap;html=1;" parent="1" vertex="1">
          <mxGeometry x="530" y="430" width="110" height="60" as="geometry" />
        </mxCell>
        <mxCell id="qL6p13uKGtfWRZLd5ckP-167" value="" style="ellipse;html=1;shape=endState;fillColor=#000000;strokeColor=#ff0000;" parent="1" vertex="1">
          <mxGeometry x="561" y="810" width="30" height="30" as="geometry" />
        </mxCell>
        <mxCell id="qL6p13uKGtfWRZLd5ckP-168" value="" style="endArrow=classic;html=1;rounded=0;exitX=0.5;exitY=1;exitDx=0;exitDy=0;entryX=1;entryY=0.5;entryDx=0;entryDy=0;" parent="1" source="qL6p13uKGtfWRZLd5ckP-166" target="qL6p13uKGtfWRZLd5ckP-172" edge="1">
          <mxGeometry width="50" height="50" relative="1" as="geometry">
            <mxPoint x="390" y="460" as="sourcePoint" />
            <mxPoint x="585" y="620" as="targetPoint" />
            <Array as="points">
              <mxPoint x="585" y="550" />
            </Array>
          </mxGeometry>
        </mxCell>
        <mxCell id="qL6p13uKGtfWRZLd5ckP-169" value="Không tồn tại" style="text;html=1;align=center;verticalAlign=middle;resizable=0;points=[];autosize=1;strokeColor=none;fillColor=none;" parent="1" vertex="1">
          <mxGeometry x="385" y="370" width="90" height="30" as="geometry" />
        </mxCell>
        <mxCell id="qL6p13uKGtfWRZLd5ckP-170" value="Tồn tại" style="text;html=1;align=center;verticalAlign=middle;resizable=0;points=[];autosize=1;strokeColor=none;fillColor=none;" parent="1" vertex="1">
          <mxGeometry x="550" y="370" width="60" height="30" as="geometry" />
        </mxCell>
        <mxCell id="qL6p13uKGtfWRZLd5ckP-171" style="edgeStyle=orthogonalEdgeStyle;rounded=0;orthogonalLoop=1;jettySize=auto;html=1;entryX=0;entryY=0.5;entryDx=0;entryDy=0;" parent="1" source="qL6p13uKGtfWRZLd5ckP-172" target="qL6p13uKGtfWRZLd5ckP-173" edge="1">
          <mxGeometry relative="1" as="geometry">
            <Array as="points">
              <mxPoint x="200" y="600" />
            </Array>
          </mxGeometry>
        </mxCell>
        <mxCell id="qL6p13uKGtfWRZLd5ckP-172" value="Nhập thông tin sửa&amp;nbsp;" style="rounded=1;whiteSpace=wrap;html=1;" parent="1" vertex="1">
          <mxGeometry x="140" y="520" width="120" height="60" as="geometry" />
        </mxCell>
        <mxCell id="qL6p13uKGtfWRZLd5ckP-173" value="Check định dạng, check null" style="rounded=1;whiteSpace=wrap;html=1;" parent="1" vertex="1">
          <mxGeometry x="440" y="570" width="120" height="60" as="geometry" />
        </mxCell>
        <mxCell id="qL6p13uKGtfWRZLd5ckP-174" value="" style="endArrow=classic;html=1;rounded=0;exitX=1;exitY=0.5;exitDx=0;exitDy=0;" parent="1" source="qL6p13uKGtfWRZLd5ckP-178" target="qL6p13uKGtfWRZLd5ckP-182" edge="1">
          <mxGeometry width="50" height="50" relative="1" as="geometry">
            <mxPoint x="381" y="730" as="sourcePoint" />
            <mxPoint x="431" y="680" as="targetPoint" />
            <Array as="points">
              <mxPoint x="576" y="670" />
            </Array>
          </mxGeometry>
        </mxCell>
        <mxCell id="qL6p13uKGtfWRZLd5ckP-175" value="" style="endArrow=classic;html=1;rounded=0;exitX=0;exitY=0.5;exitDx=0;exitDy=0;" parent="1" source="qL6p13uKGtfWRZLd5ckP-178" target="qL6p13uKGtfWRZLd5ckP-180" edge="1">
          <mxGeometry width="50" height="50" relative="1" as="geometry">
            <mxPoint x="381" y="830" as="sourcePoint" />
            <mxPoint x="431" y="780" as="targetPoint" />
            <Array as="points">
              <mxPoint x="421" y="670" />
            </Array>
          </mxGeometry>
        </mxCell>
        <mxCell id="qL6p13uKGtfWRZLd5ckP-176" value="Không hợp lệ" style="text;html=1;align=center;verticalAlign=middle;resizable=0;points=[];autosize=1;strokeColor=none;fillColor=none;" parent="1" vertex="1">
          <mxGeometry x="371" y="640" width="100" height="30" as="geometry" />
        </mxCell>
        <mxCell id="qL6p13uKGtfWRZLd5ckP-177" value="Hợp lệ" style="text;html=1;align=center;verticalAlign=middle;resizable=0;points=[];autosize=1;strokeColor=none;fillColor=none;" parent="1" vertex="1">
          <mxGeometry x="541" y="640" width="60" height="30" as="geometry" />
        </mxCell>
        <mxCell id="qL6p13uKGtfWRZLd5ckP-178" value="" style="rhombus;whiteSpace=wrap;html=1;" parent="1" vertex="1">
          <mxGeometry x="470" y="650" width="60" height="40" as="geometry" />
        </mxCell>
        <mxCell id="qL6p13uKGtfWRZLd5ckP-179" style="edgeStyle=orthogonalEdgeStyle;rounded=0;orthogonalLoop=1;jettySize=auto;html=1;entryX=0;entryY=0.5;entryDx=0;entryDy=0;" parent="1" source="qL6p13uKGtfWRZLd5ckP-180" target="qL6p13uKGtfWRZLd5ckP-172" edge="1">
          <mxGeometry relative="1" as="geometry" />
        </mxCell>
        <mxCell id="qL6p13uKGtfWRZLd5ckP-180" value="Thông báo dữ liệu không hợp lệ" style="rounded=1;whiteSpace=wrap;html=1;" parent="1" vertex="1">
          <mxGeometry x="371" y="700" width="100" height="60" as="geometry" />
        </mxCell>
        <mxCell id="qL6p13uKGtfWRZLd5ckP-181" style="edgeStyle=orthogonalEdgeStyle;rounded=0;orthogonalLoop=1;jettySize=auto;html=1;entryX=0.5;entryY=0;entryDx=0;entryDy=0;" parent="1" source="qL6p13uKGtfWRZLd5ckP-182" target="qL6p13uKGtfWRZLd5ckP-167" edge="1">
          <mxGeometry relative="1" as="geometry" />
        </mxCell>
        <mxCell id="qL6p13uKGtfWRZLd5ckP-182" value="Thông báo sửa thành công" style="rounded=1;whiteSpace=wrap;html=1;" parent="1" vertex="1">
          <mxGeometry x="521" y="700" width="110" height="60" as="geometry" />
        </mxCell>
        <mxCell id="qL6p13uKGtfWRZLd5ckP-183" value="" style="endArrow=classic;html=1;rounded=0;entryX=0.5;entryY=0;entryDx=0;entryDy=0;exitX=0.5;exitY=1;exitDx=0;exitDy=0;" parent="1" source="qL6p13uKGtfWRZLd5ckP-173" target="qL6p13uKGtfWRZLd5ckP-178" edge="1">
          <mxGeometry width="50" height="50" relative="1" as="geometry">
            <mxPoint x="390" y="750" as="sourcePoint" />
            <mxPoint x="440" y="700" as="targetPoint" />
          </mxGeometry>
        </mxCell>
      </root>
    </mxGraphModel>
  </diagram>
</mxfile>
